<?xml version="1.0" standalone="no"?>
<!DOCTYPE svg PUBLIC "-//W3C//DTD SVG 1.1//EN" "http://www.w3.org/Graphics/SVG/1.1/DTD/svg11.dtd" >
<svg xmlns="http://www.w3.org/2000/svg">
<metadata>Generated by IcoMoon</metadata>
<defs>
<font id="netgen_layouts" horiz-adv-x="1024">
<font-face units-per-em="1024" ascent="960" descent="-64" />
<missing-glyph horiz-adv-x="1024" />
<glyph unicode="&#x20;" horiz-adv-x="512" d="" />
<glyph unicode="&#xe900;" glyph-name="col" d="M432 192h-48v-32h80v80h-32zM256 192h96v-32h-96v32zM160 240h-32v-80h80v32h-48zM128 400h32v-112h-32v112zM128 560h32v-112h-32v112zM128 640h32v48h48v32h-80zM240 720h96v-32h-96v32zM384 688h48v-48h32v80h-80zM432 592h32v-112h-32v112zM432 432h32v-112h-32v112zM864 192h-48v-32h80v80h-32zM688 192h96v-32h-96v32zM608 240h-32v-80h80v32h-48zM576 400h32v-112h-32v112zM576 560h32v-112h-32v112zM576 640h32v48h48v32h-80zM688 720h96v-32h-96v32zM816 720v-32h48v-48h32v80zM864 592h32v-112h-32v112zM864 432h32v-112h-32v112z" />
<glyph unicode="&#xe901;" glyph-name="col2" d="M272 192h-48v-32h80v80h-32zM112 240h-32v-80h80v32h-48zM80 400h32v-112h-32v112zM80 560h32v-112h-32v112zM80 640h32v48h48v32h-80zM224 688h48v-48h32v80h-80zM272 432h32v-112h-32v112zM272 592h32v-112h-32v112zM912 192h-48v-32h80v80h-32zM752 240h-32v-80h80v32h-48zM720 560h32v-112h-32v112zM720 400h32v-112h-32v112zM720 640h32v48h48v32h-80zM864 720v-32h48v-48h32v80zM912 592h32v-112h-32v112zM912 432h32v-112h-32v112zM592 192h-48v-32h80v80h-32zM432 240h-32v-80h80v32h-48zM400 560h32v-112h-32v112zM400 400h32v-112h-32v112zM400 640h32v48h48v32h-80zM544 688h48v-48h32v80h-80zM592 432h32v-112h-32v112zM592 592h32v-112h-32v112z" />
<glyph unicode="&#xe902;" glyph-name="col3" d="M176 192h-48v-32h80v80h-32zM48 240h-32v-80h80v32h-48zM16 560h32v-112h-32v112zM16 400h32v-112h-32v112zM16 640h32v48h48v32h-80zM128 688h48v-48h32v80h-80zM176 432h32v-112h-32v112zM176 592h32v-112h-32v112zM448 192h-48v-32h80v80h-32zM320 240h-32v-80h80v32h-48zM288 560h32v-112h-32v112zM288 400h32v-112h-32v112zM288 640h32v48h48v32h-80zM400 688h48v-48h32v80h-80zM448 592h32v-112h-32v112zM448 432h32v-112h-32v112zM704 192h-48v-32h80v80h-32zM576 240h-32v-80h80v32h-48zM544 400h32v-112h-32v112zM544 560h32v-112h-32v112zM544 640h32v48h48v32h-80zM656 688h48v-48h32v80h-80zM704 432h32v-112h-32v112zM704 592h32v-112h-32v112zM976 192h-48v-32h80v80h-32zM848 240h-32v-80h80v32h-48zM816 560h32v-112h-32v112zM816 400h32v-112h-32v112zM816 640h32v48h48v32h-80zM928 720v-32h48v-48h32v80zM976 432h32v-112h-32v112zM976 592h32v-112h-32v112z" />
<glyph unicode="&#xe903;" glyph-name="col4" d="M32 208h-32v-48h48v32h-16zM0 496h32v-80h-32v80zM0 400h32v-80h-32v80zM0 304h32v-80h-32v80zM0 592h32v-80h-32v80zM0 680v-72h32v80h16v32h-48zM64 688h32v-112h32v144h-64zM96 368h32v-80h-32v80zM96 464h32v-80h-32v80zM96 216v-24h-32v-32h64v112h-32zM96 560h32v-80h-32v80zM208 208h-32v-48h48v32h-16zM176 304h32v-80h-32v80zM176 592h32v-80h-32v80zM176 496h32v-80h-32v80zM176 400h32v-80h-32v80zM176 680v-72h32v80h16v32h-48zM240 688h32v-112h32v144h-64zM272 560h32v-80h-32v80zM272 464h32v-80h-32v80zM272 368h32v-80h-32v80zM272 216v-24h-32v-32h64v112h-32zM400 208h-32v-48h64v32h-32zM368 400h32v-80h-32v80zM368 304h32v-80h-32v80zM368 592h32v-80h-32v80zM368 496h32v-80h-32v80zM368 680v-72h32v80h32v32h-64zM448 688h16v-112h32v144h-48zM464 216v-24h-16v-32h48v112h-32zM464 368h32v-80h-32v80zM464 464h32v-80h-32v80zM464 560h32v-80h-32v80zM576 208h-32v-48h48v32h-16zM544 592h32v-80h-32v80zM544 400h32v-80h-32v80zM544 496h32v-80h-32v80zM544 304h32v-80h-32v80zM544 680v-72h32v80h16v32h-48zM608 688h32v-112h32v144h-64zM640 464h32v-80h-32v80zM640 560h32v-80h-32v80zM640 368h32v-80h-32v80zM640 216v-24h-32v-32h64v112h-32zM752 208h-32v-48h48v32h-16zM720 304h32v-80h-32v80zM720 496h32v-80h-32v80zM720 592h32v-80h-32v80zM720 400h32v-80h-32v80zM720 680v-72h32v80h16v32h-48zM784 688h32v-112h32v144h-64zM816 368h32v-80h-32v80zM816 560h32v-80h-32v80zM816 464h32v-80h-32v80zM816 216v-24h-32v-32h64v112h-32zM928 208h-32v-48h48v32h-16zM896 400h32v-80h-32v80zM896 592h32v-80h-32v80zM896 496h32v-80h-32v80zM896 304h32v-80h-32v80zM896 680v-72h32v80h16v32h-48zM960 720v-32h32v-112h32v144zM992 368h32v-80h-32v80zM992 560h32v-80h-32v80zM992 216v-24h-32v-32h64v112h-32zM992 464h32v-80h-32v80z" />
<glyph unicode="&#xe904;" glyph-name="banner" d="M128 672v-448h768v448h-768zM864 256h-704v384h704v-384zM288 512h208v-64h-208v64zM288 416h448v-32h-448v32z" />
<glyph unicode="&#xe905;" glyph-name="banner_slider" d="M128 672v-448h768v448h-768zM864 256h-704v384h704v-384zM320 511.424l-96-55.424 96-55.424zM704 511.408v-110.848l96 55.424z" />
<glyph unicode="&#xe906;" glyph-name="blurb_group" d="M128 400h224v-32h-224v32zM128 336h224v-32h-224v32zM128 272h224v-32h-224v32zM128 208h112v-32h-112v32zM400 400h224v-32h-224v32zM400 336h224v-32h-224v32zM400 272h224v-32h-224v32zM400 208h112v-32h-112v32zM672 400h224v-32h-224v32zM672 336h224v-32h-224v32zM672 272h224v-32h-224v32zM672 208h112v-32h-112v32zM328 630c0-48.601-39.399-88-88-88s-88 39.399-88 88c0 48.601 39.399 88 88 88s88-39.399 88-88zM600 630c0-48.601-39.399-88-88-88s-88 39.399-88 88c0 48.601 39.399 88 88 88s88-39.399 88-88zM872 630c0-48.601-39.399-88-88-88s-88 39.399-88 88c0 48.601 39.399 88 88 88s88-39.399 88-88z" />
<glyph unicode="&#xe907;" glyph-name="container" d="M912 160h-80v32h48v48h32zM768 160h-128v32h128v-32zM576 160h-128v32h128v-32zM384 160h-128v32h128v-32zM208 160h-80v80h32v-48h48zM160 304h-32v112h32v-112zM160 464h-32v112h32v-112zM160 640h-32v80h80v-32h-48zM784 688h-128v32h128v-32zM592 688h-128v32h128v-32zM400 688h-128v32h128v-32zM912 640h-32v48h-48v32h80zM912 320h-32v112h32v-112zM912 480h-32v112h32v-112z" />
<glyph unicode="&#xe908;" glyph-name="gallery_grid" d="M128 832h224v-224h-224v224zM400 832h224v-224h-224v224zM672 832h224v-224h-224v224zM128 560h224v-224h-224v224zM400 560h224v-224h-224v224zM672 560h224v-224h-224v224zM128 288h224v-224h-224v224zM400 288h224v-224h-224v224zM672 288h224v-224h-224v224z" />
<glyph unicode="&#xe909;" glyph-name="grid" d="M128 832h320v-256h-320v256zM128 544h320v-16h-320v16zM128 496h160v-16h-160v16zM576 832h320v-256h-320v256zM576 544h320v-16h-320v16zM576 496h160v-16h-160v16zM128 416h320v-256h-320v256zM128 128h320v-16h-320v16zM128 80h160v-16h-160v16zM576 416h320v-256h-320v256zM576 128h320v-16h-320v16zM576 80h160v-16h-160v16z" />
<glyph unicode="&#xe90a;" glyph-name="html_snippet" d="M128 436.4l192-102.544v29.584l-160 84.144v0.832l160 84.096v29.632l-192-102.576zM720 562.144v-29.584l160-84.144v-0.832l-160-84.096v-29.632l192 102.576v23.168zM474.432 336h20.688l86.448 224h-21.28z" />
<glyph unicode="&#xe90b;" glyph-name="list" d="M560 832h64v-64h-64v64zM656 816h240v-32h-240v32zM128 832h64v-64h-64v64zM224 816h240v-32h-240v32zM560 656h64v-64h-64v64zM656 640h240v-32h-240v32zM128 656h64v-64h-64v64zM224 640h240v-32h-240v32zM560 480h64v-64h-64v64zM656 464h240v-32h-240v32zM128 480h64v-64h-64v64zM224 464h240v-32h-240v32zM560 304h64v-64h-64v64zM656 288h240v-32h-240v32zM128 304h64v-64h-64v64zM224 288h240v-32h-240v32zM560 128h64v-64h-64v64zM656 112h240v-32h-240v32zM128 128h64v-64h-64v64zM224 112h240v-32h-240v32z" />
<glyph unicode="&#xe90c;" glyph-name="list_basic" d="M128 832h240v-144h-240v144zM448 816h448v-32h-448v32zM448 736h448v-32h-448v32zM128 512h240v-144h-240v144zM448 496h448v-32h-448v32zM448 416h448v-32h-448v32zM128 208h240v-144h-240v144zM448 192h448v-32h-448v32zM448 112h448v-32h-448v32z" />
<glyph unicode="&#xe90d;" glyph-name="map" d="M663.904 592c-0.928 80-68.528 150.288-151.904 150.288s-150.992-70.288-151.92-150.288h-232.080v-448h768v448h-232.096zM512 643.984c26.992 0 48.864-21.84 48.864-48.848 0-26.976-21.872-48.848-48.864-48.848s-48.864 21.872-48.864 48.848c0 27.008 21.872 48.848 48.864 48.848zM864 176h-704v384h205.056c26.208-80 146.944-230.288 146.944-230.288s120.736 150.288 146.944 230.288h205.056v-384z" />
<glyph unicode="&#xe90e;" glyph-name="masonry" d="M128 832h224v-352h-224v352zM400 832h224v-224h-224v224zM400 560h224v-224h-224v224zM128 432h224v-368h-224v368zM672 832h224v-352h-224v352zM672 432h224v-368h-224v368zM400 288h224v-224h-224v224z" />
<glyph unicode="&#xe90f;" glyph-name="multi_container" d="M256 80h128v-32h-128v32zM144 128h-32v-80h80v32h-48zM112 320h32v-128h-32v128zM112 704h32v-128h-32v128zM112 512h32v-128h-32v128zM112 768h32v48h48v32h-80zM256 848h128v-32h-128v32zM448 848v-32h48v-48h32v48h48v32h-80zM880 464h-48v-32h48v-48h32v128h-32zM528 512h-32v-128h32v48h48v32h-48zM496 704h32v-128h-32v128zM640 848h128v-32h-128v32zM832 848v-32h48v-48h32v80zM880 704h32v-128h-32v128zM880 80h-48v-32h80v80h-32zM640 80h128v-32h-128v32zM528 128h-32v-48h-48v-32h128v32h-48zM496 320h32v-128h-32v128zM640 464h128v-32h-128v32zM880 320h32v-128h-32v128z" />
<glyph unicode="&#xe910;" glyph-name="multi_container-2" d="M640 848h128v-32h-128v32zM832 848v-32h48v-48h32v80zM880 320h32v-128h-32v128zM880 512h32v-128h-32v128zM880 704h32v-128h-32v128zM880 80h-48v-32h80v80h-32zM640 80h128v-32h-128v32zM496 384h32v128h-32v-48h-48v-32h48zM496 320h32v-128h-32v128zM528 128h-32v-48h-48v-32h128v32h-48zM256 80h128v-32h-128v32zM144 128h-32v-80h80v32h-48zM112 320h32v-128h-32v128zM112 768h32v48h48v32h-80zM256 848h128v-32h-128v32zM448 848v-32h48v-48h32v48h48v32h-48zM496 704h32v-128h-32v128zM256 464h128v-32h-128v32zM144 512h-32v-128h32v48h48v32h-48zM112 704h32v-128h-32v128zM308.496 694.624h-0.368l-21.68-11.68-3.248 12.848 27.248 14.592h14.368v-124.752h-16.32v108.992zM280.192 200.576v10.352l13.232 12.864c31.856 30.32 46.432 46.432 46.432 65.248 0 12.656-5.952 24.352-24.56 24.352-11.312 0-20.72-5.744-26.48-10.544l-5.376 11.888c8.448 7.104 20.928 12.672 35.12 12.672 26.864 0 38.192-18.416 38.192-36.272 0-23.024-16.704-41.648-42.992-66.976l-9.776-9.216v-0.368h55.824v-14.016h-79.616zM678.816 412.832c4.8-2.88 15.728-7.664 27.632-7.664 21.504 0 28.4 13.632 28.208 24.176-0.192 17.472-15.92 24.96-32.24 24.96h-9.408v12.656h9.392c12.288 0 27.824 6.336 27.824 21.104 0 9.984-6.336 18.816-21.872 18.816-9.984 0-19.584-4.416-24.96-8.256l-4.592 12.288c6.704 4.8 19.376 9.6 32.816 9.6 24.56 0 35.68-14.576 35.68-29.744 0-13.040-7.872-23.984-23.024-29.552v-0.416c15.36-2.88 27.648-14.384 27.824-31.84 0-19.968-15.728-37.424-45.488-37.424-14 0-26.288 4.4-32.416 8.432l4.624 12.864z" />
<glyph unicode="&#xe911;" glyph-name="quote" d="M128 544h768v-64h-768v64zM128 400h768v-64h-768v64zM128 272h768v-64h-768v64zM128 128h384v-64h-384v64zM300.416 792.48c-12.080-19.344-12.416-38.384-12.416-40.48v-128h96v112h-64v16c0 0.112 0.32 11.936 7.552 23.52 10.144 16.24 29.136 24.48 56.448 24.48v32c-48.672 0-72.32-21.488-83.584-39.52zM140.416 792.48c-12.080-19.344-12.416-38.384-12.416-40.48v-128h96v112h-64v16c0 0.112 0.32 11.936 7.552 23.52 10.144 16.24 29.136 24.48 56.448 24.48v32c-48.672 0-72.32-21.488-83.584-39.52z" />
<glyph unicode="&#xe912;" glyph-name="rich_text" d="M128 832h128v-64h-128v64zM128 736h768v-32h-768v32zM128 672h768v-32h-768v32zM128 544h128v-64h-128v64zM128 448h768v-32h-768v32zM128 384h768v-32h-768v32zM128 256h128v-64h-128v64zM128 160h768v-32h-768v32zM128 96h768v-32h-768v32z" />
<glyph unicode="&#xe913;" glyph-name="slider" d="M256 256h512v368h-512v-368zM288 592h448v-304h-448v304zM0 592h128v-304h-128v-32h160v368h-160zM1024 592v32h-160v-368h160v32h-128v304zM398.368 484.592c0 0.96-0.4 1.808-1.056 2.448l-5.36 5.36c-0.64 0.64-1.616 1.072-2.464 1.072s-1.824-0.432-2.464-1.072l-49.936-49.936c-0.656-0.64-1.088-1.6-1.088-2.464s0.432-1.824 1.072-2.464l49.936-49.936c0.64-0.64 1.616-1.072 2.464-1.072s1.824 0.432 2.464 1.072l5.36 5.36c0.656 0.64 1.056 1.616 1.056 2.448 0 0.864-0.4 1.824-1.056 2.464l-42.112 42.128 42.128 42.128c0.656 0.64 1.056 1.6 1.056 2.464zM635.36 492.4c-0.64 0.64-1.616 1.072-2.464 1.072s-1.824-0.432-2.464-1.072l-5.36-5.36c-0.672-0.64-1.072-1.6-1.072-2.448 0-0.864 0.4-1.824 1.056-2.464l42.128-42.128-42.128-42.128c-0.656-0.64-1.056-1.6-1.056-2.464 0-0.96 0.4-1.808 1.056-2.448l5.36-5.36c0.64-0.64 1.616-1.072 2.464-1.072s1.824 0.432 2.464 1.072l49.936 49.936c0.64 0.64 1.072 1.616 1.072 2.464s-0.432 1.824-1.072 2.464l-49.92 49.936z" />
<glyph unicode="&#xe914;" glyph-name="sushi_bar" d="M0 736h96v-336h-96v336zM144 736h208v-336h-208v336zM400 736h208v-336h-208v336zM656 736h208v-336h-208v336zM928 736h96v-336h-96v336zM320 158.032v166.288l-144-83.136zM688 158.032l144 83.12-144 83.168z" />
<glyph unicode="&#xe915;" glyph-name="thumb" d="M128 832h768v-528h-768v528zM128 256h224v-192h-224v192zM400 256h224v-192h-224v192zM672 256h224v-192h-224v192z" />
<glyph unicode="&#xe916;" glyph-name="title" d="M128 800h768v-128h-768v128zM128 608h608v-32h-608v32zM128 512h608v-32h-608v32zM128 416h608v-32h-608v32zM128 320h608v-32h-608v32zM128 224h608v-32h-608v32zM128 128h304v-32h-304v32z" />
<glyph unicode="&#xe917;" glyph-name="video" d="M128 672v-448h768v448h-768zM864 256h-704v384h704v-384zM416 568v-240l207.856 120z" />
<glyph unicode="&#xe918;" glyph-name="text" d="M128 832h768v-64h-768v64zM128 656h768v-64h-768v64zM128 480h768v-64h-768v64zM128 304h768v-64h-768v64zM128 128h384v-64h-384v64z" />
<glyph unicode="&#xe919;" glyph-name="add" d="M192 768v-640h640v640h-640zM656 416h-128v-128h-48v128h-128v48h128v128h48v-128h128v-48z" />
</font>
</defs>
</svg>
