<?xml version="1.0" standalone="no"?>
<!DOCTYPE svg PUBLIC "-//W3C//DTD SVG 1.1//EN" "http://www.w3.org/Graphics/SVG/1.1/DTD/svg11.dtd" >
<svg xmlns="http://www.w3.org/2000/svg">
<metadata>Generated by IcoMoon</metadata>
<defs>
<font id="netgen_layouts" horiz-adv-x="1024">
<font-face units-per-em="1024" ascent="960" descent="-64" />
<missing-glyph horiz-adv-x="1024" />
<glyph unicode="&#x20;" horiz-adv-x="512" d="" />
<glyph unicode="&#xe900;" glyph-name="add" d="M1024-64h-1024v1024h1024v-1024zM64 0h896v896h-896v-896zM800 480h-256v256h-64v-256h-256v-64h256v-256h64v256h256z" />
<glyph unicode="&#xe901;" glyph-name="col" d="M480-64h-128v64h64v96h64zM192-64h-160v160h64v-96h96zM96 192h-64v224h64v-224zM96 512h-64v224h64v-224zM96 800h-64v160h160v-64h-96zM480 800h-64v96h-64v64h128zM480 160h-64v224h64v-224zM480 480h-64v224h64v-224zM992-64h-128v64h64v96h64zM704-64h-160v160h64v-96h96zM608 192h-64v224h64v-224zM608 512h-64v224h64v-224zM608 800h-64v160h160v-64h-96zM992 800h-64v96h-64v64h128zM992 160h-64v224h64v-224zM992 480h-64v224h64v-224z" />
<glyph unicode="&#xe902;" glyph-name="col3" d="M288-64h-128v64h64v64h64zM128-64h-128v128h64v-64h64zM64 128h-64v192h64v-192zM64 384h-64v192h64v-192zM64 640h-64v192h64v-192zM64 832h-64v128h128v-64h-64zM288 832h-64v64h-64v64h128zM288 64h-64v192h64v-192zM288 320h-64v192h64v-192zM288 576h-64v192h64v-192zM640-64h-128v64h64v64h64zM512-64h-128v128h64v-64h64zM448 128h-64v192h64v-192zM448 384h-64v192h64v-192zM448 640h-64v192h64v-192zM448 832h-64v128h128v-64h-64zM640 832h-64v64h-64v64h128zM640 64h-64v192h64v-192zM640 320h-64v192h64v-192zM640 576h-64v192h64v-192zM1024-64h-128v64h64v64h64zM864-64h-128v128h64v-64h64zM800 128h-64v192h64v-192zM800 384h-64v192h64v-192zM800 640h-64v192h64v-192zM800 832h-64v128h128v-64h-64zM1024 832h-64v64h-64v64h128zM1024 64h-64v192h64v-192zM1024 320h-64v192h64v-192zM1024 576h-64v192h64v-192z" />
<glyph unicode="&#xe903;" glyph-name="col4" d="M224-64h-224v160h64v-96h96v96h64zM64 192h-64v224h64v-224zM64 512h-64v224h64v-224zM224 800h-64v96h-96v-96h-64v160h224zM224 160h-64v224h64v-224zM224 480h-64v224h64v-224zM992-64h-224v160h64v-96h96v96h64zM832 192h-64v224h64v-224zM832 512h-64v224h64v-224zM992 800h-64v96h-96v-96h-64v160h224zM992 160h-64v224h64v-224zM992 480h-64v224h64v-224zM480-64h-224v160h64v-96h96v96h64zM320 192h-64v224h64v-224zM320 512h-64v224h64v-224zM480 800h-64v96h-96v-96h-64v160h224zM480 160h-64v224h64v-224zM480 480h-64v224h64v-224zM736-64h-224v160h64v-96h96v96h64zM576 192h-64v224h64v-224zM576 512h-64v224h64v-224zM736 800h-64v96h-96v-96h-64v160h224zM736 160h-64v224h64v-224zM736 480h-64v224h64v-224z" />
<glyph unicode="&#xe904;" glyph-name="banner" d="M992 64h-960v768h960v-768zM96 128h832v640h-832v-640zM160 576h416v-128h-416v128zM160 384h704v-64h-704v64z" />
<glyph unicode="&#xe905;" glyph-name="banner_slider" d="M992 64h-960v768h960v-768zM96 128h832v640h-832v-640zM416 337.184l-192 110.816 192 110.88zM608 558.816l192-110.816-192-110.88z" />
<glyph unicode="&#xe906;" glyph-name="blurb_group" d="M32 416h416v-64h-416v64zM32 288h416v-64h-416v64zM32 160h416v-64h-416v64zM32 32h192v-64h-192v64zM576 416h416v-64h-416v64zM576 288h416v-64h-416v64zM576 160h416v-64h-416v64zM576 32h192v-64h-192v64zM416 732c0-106.039-85.961-192-192-192s-192 85.961-192 192c0 106.039 85.961 192 192 192s192-85.961 192-192zM960 732c0-106.039-85.961-192-192-192s-192 85.961-192 192c0 106.039 85.961 192 192 192s192-85.961 192-192z" />
<glyph unicode="&#xe907;" glyph-name="container" d="M992-32h-128v64h64v96h64zM768-32h-224v64h224v-64zM448-32h-224v64h224v-64zM160-32h-128v160h64v-96h64zM96 192h-64v224h64v-224zM96 512h-64v224h64v-224zM96 800h-64v128h128v-64h-64zM800 864h-224v64h224v-64zM480 864h-224v64h224v-64zM992 800h-64v64h-64v64h128zM992 192h-64v224h64v-224zM992 512h-64v224h64v-224z" />
<glyph unicode="&#xe908;" glyph-name="gallery_grid" d="M288 672h-256v256h256v-256zM96 736h128v128h-128v-128zM640 672h-256v256h256v-256zM448 736h128v128h-128v-128zM992 672h-256v256h256v-256zM800 736h128v128h-128v-128zM288 320h-256v256h256v-256zM96 384h128v128h-128v-128zM640 320h-256v256h256v-256zM448 384h128v128h-128v-128zM992 320h-256v256h256v-256zM800 384h128v128h-128v-128zM288-32h-256v256h256v-256zM96 32h128v128h-128v-128zM640-32h-256v256h256v-256zM448 32h128v128h-128v-128zM992-32h-256v256h256v-256zM800 32h128v128h-128v-128z" />
<glyph unicode="&#xe909;" glyph-name="grid" d="M448 608h-320v320h320v-320zM192 672h192v192h-192v-192zM128 576h320v-32h-320v32zM128 512h160v-32h-160v32zM448 96h-320v320h320v-320zM192 160h192v192h-192v-192zM128 64h320v-32h-320v32zM128 0h160v-32h-160v32zM896 608h-320v320h320v-320zM640 672h192v192h-192v-192zM576 576h320v-32h-320v32zM576 512h160v-32h-160v32zM896 96h-320v320h320v-320zM640 160h192v192h-192v-192zM576 64h320v-32h-320v32zM576 0h160v-32h-160v32z" />
<glyph unicode="&#xe90a;" glyph-name="html_snippet" d="M49.856 463.68l270.144 139.232v-40.224l-227.648-114.080v-1.184l227.648-114.176v-40.16l-270.144 139.2v31.392zM974.144 432.32l-270.144-139.232v40.224l227.68 114.080v1.184l-227.68 114.176v40.16l270.144-139.2v-31.392zM435.456 288l122.656 320h30.4l-123.488-320h-29.568z" />
<glyph unicode="&#xe90b;" glyph-name="list" d="M32 896h160v-160h-160v160zM32 640h160v-160h-160v160zM32 384h160v-160h-160v160zM32 128h160v-160h-160v160zM256 864h192v-64h-192v64zM256 608h192v-64h-192v64zM256 352h192v-64h-192v64zM256 96h192v-64h-192v64zM576 896h160v-160h-160v160zM576 640h160v-160h-160v160zM576 384h160v-160h-160v160zM576 128h160v-160h-160v160zM800 864h192v-64h-192v64zM800 608h192v-64h-192v64zM800 352h192v-64h-192v64zM800 96h192v-64h-192v64z" />
<glyph unicode="&#xe90c;" glyph-name="col6" d="M480-64h-128v64h64v96h64zM192-64h-160v160h64v-96h96zM96 192h-64v224h64v-224zM96 512h-64v224h64v-224zM96 800h-64v160h160v-64h-96zM480 800h-64v96h-64v64h128zM480 160h-64v224h64v-224zM480 480h-64v224h64v-224zM561.76 426.688c0 113.312 46.112 169.952 138.432 169.952 14.496 0 26.784-1.12 36.8-3.36v-38.816c-10.016 2.944-21.664 4.384-34.848 4.384-31.040 0-54.336-8.32-69.92-24.928-15.584-16.672-24.032-43.328-25.344-80.064h2.368c6.176 10.752 14.912 19.008 26.112 24.864s24.448 8.8 39.616 8.8c26.24 0 46.72-8.064 61.376-24.128 14.656-16.128 22.016-38.016 22.016-65.568 0-30.368-8.512-54.368-25.472-72s-40.096-26.432-69.408-26.432c-20.704 0-38.752 4.992-54.048 14.944-15.328 10.016-27.104 24.512-35.328 43.552s-12.352 41.984-12.352 68.8zM662.752 337.824c15.968 0 28.288 5.12 36.928 15.424s12.96 24.992 12.96 44.128c0 16.672-4.064 29.76-12.192 39.264s-20.32 14.24-36.544 14.24c-10.016 0-19.296-2.112-27.712-6.432-8.48-4.32-15.136-10.176-20.032-17.632-4.864-7.424-7.328-15.072-7.328-22.88 0-18.624 5.056-34.304 15.168-47.072s23.040-19.040 38.752-19.040zM856.64 415.264l-73.472 107.136h53.056l49.92-76.64 50.304 76.64h52.672l-73.664-107.136 77.44-111.936h-52.672l-54.048 82.016-53.888-82.016h-52.672l77.024 111.936z" />
<glyph unicode="&#xe90d;" glyph-name="map" d="M992-32h-960v960h960v-960zM96 32h832v832h-832v-832zM512 757.728c-132.576 0-240-107.456-240-240s240-411.456 240-411.456 240 278.912 240 411.424-107.424 240.032-240 240.032zM512 440.608c-42.592 0-77.152 34.528-77.152 77.12 0 42.624 34.56 77.12 77.152 77.12s77.152-34.496 77.152-77.12c0-42.592-34.56-77.12-77.152-77.12z" />
<glyph unicode="&#xe90e;" glyph-name="masonry" d="M320 576h-288v352h288v-352zM96 640h160v224h-160v-224zM320-32h-288v576h288v-576zM96 32h160v448h-160v-448zM672 544h288v-576h-288v576zM896 480h-160v-448h160v448zM672 928h288v-352h-288v352zM896 864h-160v-224h160v224zM640 352h-288v576h288v-576zM416 416h160v448h-160v-448zM640-32h-288v352h288v-352zM416 32h160v224h-160v-224z" />
<glyph unicode="&#xe90f;" glyph-name="multi_container" d="M64 96h-64v-160h160v64h-96zM0 608h64v-320h-64v320zM0 768h64v128h96v64h-160zM960 576v-96h-128v-64h128v-128h64v320h-64zM480 576v-288h64v128h96v64h-96v96zM480 960h-128v-64h128v-128h64v128h128v64h-32zM832 960v-64h128v-128h64v192zM960 0h-128v-64h192v160h-64zM544 0v96h-64v-96h-128v-64h320v64h-32z" />
<glyph unicode="&#xe910;" glyph-name="multi_container-2" d="M864 960v-64h96v-96h64v160zM960 608h64v-320h-64v320zM960 0h-96v-64h160v192h-64zM544 320v256h-64v-96h-96v-64h96v-96zM544 128h-64v-128h-128v-64h320v64h-128zM64 128h-64v-192h192v64h-128zM0 800h64v96h128v64h-192zM384 960h-32v-64h128v-96h64v96h128v64h-128zM64 576v32h-64v-320h64v128h128v64h-128zM273.088 770.848h-0.832l-45.12-24.288-6.784 26.688 56.768 30.4h29.952v-259.68h-33.984v226.88zM201.792 69.856v21.152l27.136 26.368c65.216 62.016 95.104 95.072 95.104 133.632 0 25.856-12.16 49.888-50.272 49.888-23.168 0-42.432-11.808-54.272-21.696l-11.008 24.384c17.28 14.624 42.848 25.952 71.936 25.952 54.944 0 78.144-37.696 78.144-74.208 0-47.168-34.144-85.248-87.968-137.184l-20-18.944v-0.704h114.304v-28.64h-163.104zM696.064 406.24c9.664-5.888 31.744-15.488 55.616-15.488 43.296 0 57.184 27.488 56.8 48.672-0.448 35.104-32.128 50.176-64.864 50.176h-18.976v25.504h18.976c24.672 0 56 12.768 56 42.464 0 20.16-12.736 37.92-44.128 37.92-20.032 0-39.36-8.896-50.144-16.64l-9.28 24.8c13.472 9.632 39.008 19.328 66.016 19.328 49.504 0 71.936-29.376 71.936-59.936 0-26.272-15.904-48.288-46.4-59.552v-0.672c30.912-5.824 55.648-29.056 56-64.16 0-40.192-31.648-75.328-91.52-75.328-28.16 0-52.96 8.832-65.344 16.992l9.312 25.92z" />
<glyph unicode="&#xe911;" glyph-name="quote" d="M352 704h192v-192h-192v192zM416 704h-64v64.48c0 0 0 0 0 0.032l0.16 4.48c0.768 11.328 4.8 40.672 25.792 70.016 22.624 31.584 69.76 69.248 166.048 69.248v-64c-54.688 0-94.112-14.688-114.016-42.496-13.184-18.432-13.984-37.088-13.984-37.248v-64.512zM32 704h192v-192h-192v192zM96 704h-64v64.48c0 0 0 0 0 0.032l0.16 4.48c0.768 11.328 4.8 40.672 25.792 70.016 22.624 31.584 69.76 69.248 166.048 69.248v-64c-54.688 0-94.112-14.688-114.016-42.496-13.184-18.432-13.984-37.088-13.984-37.248v-64.512zM32 448h960v-64h-960v64zM32 320h960v-64h-960v64zM32 192h960v-64h-960v64zM32 64h480v-64h-480v64z" />
<glyph unicode="&#xe912;" glyph-name="rich_text" d="M992-32h-960v960h960v-960zM96 32h832v832h-832v-832zM382.112 518.624l-7.264 34.112h-1.728c-11.936-15.072-23.872-25.184-35.744-30.496-11.872-5.376-26.752-8-44.512-8-23.808 0-42.432 6.112-55.936 18.368-13.44 12.256-20.192 29.696-20.192 52.256 0 48.448 38.688 73.824 116.128 76.128l40.672 1.312v14.88c0 18.816-4.064 32.736-12.128 41.696-8.128 8.992-21.056 13.44-38.816 13.44-20 0-42.624-6.112-67.808-18.368l-11.168 27.808c11.808 6.368 24.768 11.424 38.816 15.040 14.112 3.68 28.192 5.504 42.368 5.504 28.576 0 49.76-6.368 63.488-19.072 13.824-12.672 20.672-32.992 20.672-60.992v-163.616h-26.848zM300.064 544.192c22.624 0 40.384 6.176 53.248 18.624 12.928 12.384 19.36 29.76 19.36 52.064v21.632l-36.32-1.504c-28.864-1.056-49.696-5.504-62.432-13.44-12.736-8-19.136-20.32-19.136-37.12 0-13.12 3.936-23.136 11.872-29.952 8.032-6.88 19.168-10.304 33.408-10.304zM382.112 177.312l-7.264 34.112h-1.728c-11.936-15.072-23.872-25.184-35.744-30.496-11.872-5.376-26.752-8-44.512-8-23.808 0-42.432 6.112-55.936 18.368-13.44 12.256-20.192 29.696-20.192 52.256 0 48.448 38.688 73.824 116.128 76.128l40.672 1.312v14.88c0 18.816-4.064 32.736-12.128 41.696-8.128 8.992-21.056 13.44-38.816 13.44-20 0-42.624-6.112-67.808-18.368l-11.2 27.808c11.808 6.368 24.736 11.424 38.816 15.072 14.112 3.68 28.192 5.504 42.368 5.504 28.576 0 49.76-6.368 63.488-19.072 13.824-12.672 20.672-32.992 20.672-60.992v-163.616h-26.816zM300.064 202.88c22.624 0 40.384 6.176 53.248 18.624 12.928 12.384 19.36 29.76 19.36 52.064v21.632l-36.32-1.504c-28.864-1.056-49.696-5.504-62.432-13.44-12.736-8-19.136-20.32-19.136-37.12 0-13.12 3.936-23.136 11.872-29.952 8.032-6.88 19.168-10.304 33.408-10.304zM196.192 132.448v22.304h249.12v-22.304h-249.12zM722.624 421.44c13.376 0 25.376-3.616 35.872-10.816 10.496-7.264 18.624-17.632 24.512-31.2h2.368l14.688 37.632h27.744l-50.944-239.744h-29.12l5.696 45.696h-1.76c-26.048-33.376-53.568-50.048-82.432-50.048-20.32 0-36.192 7.2-47.68 21.632-11.552 14.432-17.312 34.176-17.312 59.328 0 30.304 5.184 58.432 15.552 84.448 10.304 25.952 24.64 46.304 42.88 60.992 18.176 14.688 38.176 22.080 59.936 22.080zM681.056 203.328c14.112 0 28.192 6.752 42.176 20.256s25.376 31.072 34.112 52.736c8.736 21.632 13.12 43.328 13.12 65.056 0 15.008-4.064 26.944-12.256 35.872-8.128 8.864-18.88 13.312-32.128 13.312-15.2 0-29.312-6.24-42.304-18.816-13.056-12.512-23.328-29.504-30.752-50.944s-11.2-44.064-11.2-67.808c0-16.64 3.424-29.056 10.304-37.312s16.512-12.352 28.928-12.352zM769.12 513.952l-12.864 33.248h-1.76c-11.264-14.112-22.816-23.936-34.688-29.44-11.872-5.44-27.36-8.192-46.496-8.192-23.424 0-41.952 6.752-55.424 20.128-13.504 13.44-20.256 32.576-20.256 57.312 0 26.016 9.12 45.12 27.264 57.44 18.176 12.32 45.568 19.136 82.112 20.448l42.432 1.312v10.72c0 24.736-12.672 37.184-38.048 37.184-19.488 0-42.496-5.952-68.864-17.76l-22.144 45.088c28.192 14.752 59.36 22.112 93.632 22.112 32.8 0 58.016-7.2 75.488-21.44 17.504-14.304 26.24-36.064 26.24-65.184v-163.008h-46.624zM749.44 627.264l-25.824-0.864c-19.36-0.576-33.824-4.064-43.328-10.496-9.44-6.368-14.176-16.192-14.176-29.312 0-18.816 10.752-28.192 32.384-28.192 15.424 0 27.808 4.448 37.056 13.312 9.248 8.928 13.888 20.736 13.888 35.424v20.128z" />
<glyph unicode="&#xe913;" glyph-name="slider" d="M832 32h-640v832h640v-832zM256 96h512v704h-512v-704zM128 32h-128v64h64v704h-64v64h128zM1024 32h-128v832h128v-64h-64v-704h64zM442.624 532.256l-84.256-84.256 84.256-84.256c1.312-1.28 2.112-3.232 2.112-4.928s-0.8-3.616-2.112-4.896l-10.72-10.72c-1.28-1.28-3.232-2.144-4.928-2.144s-3.648 0.864-4.928 2.144l-99.872 99.872c-1.312 1.28-2.176 3.2-2.176 4.928s0.864 3.648 2.144 4.928l99.872 99.872c1.28 1.28 3.232 2.144 4.928 2.144s3.648-0.864 4.928-2.144l10.72-10.72c1.312-1.28 2.112-3.008 2.112-4.896 0.032-1.728-0.768-3.648-2.080-4.928zM578.112 363.744l84.256 84.256-84.256 84.256c-1.312 1.28-2.112 3.2-2.112 4.928 0 1.696 0.8 3.616 2.112 4.896l10.72 10.72c1.28 1.28 3.232 2.144 4.928 2.144s3.648-0.864 4.928-2.144l99.872-99.872c1.28-1.28 2.144-3.232 2.144-4.928s-0.864-3.648-2.144-4.928l-99.872-99.872c-1.28-1.28-3.232-2.144-4.928-2.144s-3.648 0.864-4.928 2.144l-10.72 10.72c-1.312 1.28-2.112 2.976-2.112 4.896 0 1.728 0.8 3.648 2.112 4.928z" />
<glyph unicode="&#xe914;" glyph-name="sushi_bar" d="M448-0.352l-113.184 65.376 113.184 65.376zM576 130.4l113.184-65.376-113.184-65.376zM320 224h-256v672h256v-672zM128 288h128v544h-128v-544zM640 224h-256v672h256v-672zM448 288h128v544h-128v-544zM960 224h-256v672h256v-672zM768 288h128v544h-128v-544z" />
<glyph unicode="&#xe915;" glyph-name="thumb" d="M992 320h-960v608h960v-608zM96 384h832v480h-832v-480zM288-32h-256v288h256v-288zM96 32h128v160h-128v-160zM992-32h-256v288h256v-288zM800 32h128v160h-128v-160zM672-32h-320v288h320v-288zM416 32h192v160h-192v-160z" />
<glyph unicode="&#xe916;" glyph-name="title" d="M32 928v-960h960v960h-960zM928 32h-832v832h832v-832zM384 224h64v384h128v64h-320v-64h128zM640 192h-64v-64h192v64h-64v512h64v64h-192v-64h64z" />
<glyph unicode="&#xe917;" glyph-name="video" d="M992-32h-960v960h960v-960zM96 32h832v832h-832v-832zM320 688l415.712-240-415.712-240z" />
<glyph unicode="&#xe918;" glyph-name="text" d="M32 864h960v-64h-960v64zM32 704h960v-64h-960v64zM32 544h960v-64h-960v64zM32 384h960v-64h-960v64zM32 224h960v-64h-960v64zM32 64h480v-64h-480v64z" />
<glyph unicode="&#xe91a;" glyph-name="list_blocks" d="M480 480h-448v448h448v-448zM96 544h320v320h-320v-320zM480-32h-448v448h448v-448zM96 32h320v320h-320v-320zM544 864h448v-64h-448v64zM544 736h224v-64h-224v64zM544 352h448v-64h-448v64zM544 224h224v-64h-224v64z" />
</font>
</defs>
</svg>
